<?xml version="1.0" encoding="utf-8"?>
<!-- Generator: Adobe Illustrator 19.0.0, SVG Export Plug-In . SVG Version: 6.00 Build 0)  -->
<svg version="1.1" id="Layer_1" xmlns="http://www.w3.org/2000/svg" xmlns:xlink="http://www.w3.org/1999/xlink" x="0px" y="0px"
	 viewBox="0 0 77.1 58.4" style="enable-background:new 0 0 77.1 58.4;" xml:space="preserve">
<style type="text/css">
	.st0{fill:#F68D40;}
	.st1{fill:#2CBBD8;}
	.st2{fill:#FFFFFF;}
	.st3{fill:#102E37;}
	.st4{fill:#FCD272;}
	.st5{opacity:0.57;fill:#E2B559;}
</style>
<g id="XMLID_23_">
	<polygon id="XMLID_179_" class="st0" points="0,11.6 20.4,0 40.5,12.1 40.3,29.3 32,33.9 20.6,33.7 9.5,32.2 3.8,28.2 	"/>
	<polygon id="XMLID_173_" class="st1" points="62.7,11.2 59.2,28 50.6,31.2 43.6,32.2 32.4,32.8 21.2,30.2 20.1,14.2 41.4,1.1 	"/>
	<ellipse id="XMLID_171_" class="st2" cx="19.6" cy="21.8" rx="7.7" ry="7.8"/>
	<ellipse id="XMLID_166_" class="st3" cx="19.6" cy="21.8" rx="6.4" ry="6.5"/>
	<ellipse id="XMLID_86_" class="st2" cx="44.2" cy="21.5" rx="7.7" ry="7.8"/>
	<ellipse id="XMLID_82_" class="st3" cx="44.2" cy="21.5" rx="6.4" ry="6.5"/>
	<ellipse id="XMLID_81_" class="st2" cx="44.3" cy="21.4" rx="0.8" ry="0.8"/>
	<ellipse id="XMLID_80_" class="st2" cx="19.7" cy="21.7" rx="0.8" ry="0.8"/>
	<path id="XMLID_72_" class="st3" d="M62.3,4.7c0,0-1.4,2.7-7,2.7s-14.5,1.7-19.1,5.8s-3.8,4.7-3.8,4.7s4.8-4.8,9.1-6.6
		s8.7-2.3,11.1-2.3C55.8,9,59.9,9,62.3,4.7z"/>
	<path id="XMLID_69_" class="st3" d="M1.3,4.6c0,0,1.4,2.7,7,2.7S22.8,9,27.4,13.1s3.8,4.7,3.8,4.7s-4.8-4.8-9.1-6.6
		S13.4,8.8,11,8.9C7.8,8.9,3.7,9,1.3,4.6z"/>
	<g id="XMLID_53_">
		<path id="XMLID_63_" class="st1" d="M35.2,37.1c-0.6,0-1.1,0.2-1.6,0.5c-0.5,0.3-0.8,0.8-1,1.4c-0.2,0.6-0.4,1.3-0.4,2.1
			c0,0.8,0.1,1.5,0.4,2.1c0.2,0.6,0.6,1.1,1,1.4c0.4,0.3,1,0.5,1.6,0.5c0.9,0,1.6-0.3,2.2-1c0.5-0.7,0.8-1.7,0.8-2.9
			c0-1.2-0.3-2.2-0.8-2.9C36.8,37.4,36.1,37.1,35.2,37.1z"/>
		<path id="XMLID_54_" class="st1" d="M60.6,25.9H3.1C1.4,25.9,0,27.3,0,29v19.4c0,1.7,1.4,3.1,3.1,3.1h13V36.6c0-0.6,0.1-1,0.4-1.3
			c0.3-0.3,0.6-0.4,1-0.4c0.3,0,0.5,0.1,0.7,0.2c0.2,0.1,0.4,0.3,0.5,0.6c0.1,0.3,0.2,0.6,0.2,0.9v0.4c0.5-0.7,1.1-1.2,1.7-1.6
			c0.6-0.3,1.4-0.5,2.2-0.5c0.8,0,1.5,0.2,2.1,0.5c0.6,0.4,1.1,0.8,1.4,1.5c0.2,0.4,0.3,0.8,0.4,1.2c0.1,0.4,0.1,1,0.1,1.7v5.7
			c0,0.6-0.1,1.1-0.4,1.4c-0.3,0.3-0.6,0.5-1.1,0.5c-0.5,0-0.8-0.2-1.1-0.5c-0.3-0.3-0.4-0.8-0.4-1.4v-5.1c0-1-0.1-1.8-0.4-2.3
			c-0.3-0.5-0.8-0.8-1.7-0.8c-0.5,0-1,0.2-1.5,0.5s-0.8,0.8-1,1.3c-0.1,0.5-0.2,1.3-0.2,2.6v16.8l5.9-6.9h35.6
			c1.7,0,3.1-1.4,3.1-3.1V29C63.6,27.3,62.3,25.9,60.6,25.9z M40.8,43.6c-0.3,0.8-0.7,1.4-1.2,2c-0.5,0.6-1.2,1-1.9,1.3
			c-0.7,0.3-1.6,0.4-2.5,0.4c-0.9,0-1.7-0.1-2.5-0.4c-0.7-0.3-1.4-0.7-1.9-1.3c-0.5-0.6-0.9-1.2-1.2-2c-0.3-0.8-0.4-1.6-0.4-2.5
			c0-0.9,0.1-1.8,0.4-2.5c0.3-0.8,0.7-1.4,1.2-2c0.5-0.5,1.2-1,1.9-1.3c0.7-0.3,1.6-0.4,2.5-0.4c0.9,0,1.8,0.1,2.5,0.4
			c0.7,0.3,1.4,0.7,1.9,1.3c0.5,0.6,0.9,1.2,1.2,2c0.3,0.8,0.4,1.6,0.4,2.5C41.2,41.9,41.1,42.8,40.8,43.6z M59.7,37.5l-2.5,7.3
			c-0.2,0.6-0.4,1.1-0.5,1.3c-0.1,0.3-0.3,0.5-0.6,0.7c-0.3,0.2-0.6,0.3-1,0.3c-0.5,0-0.8-0.1-1.1-0.3c-0.3-0.2-0.5-0.5-0.6-0.9
			c-0.1-0.3-0.3-0.8-0.4-1.3l-1.7-6l-1.7,6c-0.2,0.8-0.5,1.5-0.7,1.9c-0.3,0.4-0.7,0.6-1.4,0.6c-0.3,0-0.6-0.1-0.8-0.2
			c-0.2-0.1-0.4-0.3-0.6-0.6c-0.2-0.2-0.3-0.5-0.4-0.9c-0.1-0.3-0.2-0.6-0.3-0.8l-2.5-7.3c-0.2-0.7-0.4-1.2-0.4-1.4
			c0-0.3,0.1-0.6,0.4-0.9c0.3-0.3,0.6-0.4,1-0.4c0.5,0,0.8,0.1,1,0.4c0.2,0.3,0.4,0.8,0.6,1.5l2,6.8l1.8-6.4
			c0.2-0.7,0.3-1.1,0.4-1.4c0.1-0.2,0.3-0.5,0.5-0.7c0.3-0.2,0.6-0.3,1-0.3c0.5,0,0.8,0.1,1.1,0.3c0.3,0.2,0.4,0.5,0.5,0.7
			c0.1,0.3,0.2,0.7,0.4,1.3l1.8,6.4l2-6.8c0.1-0.5,0.2-0.9,0.3-1.1c0.1-0.2,0.2-0.4,0.4-0.6c0.2-0.2,0.5-0.3,0.8-0.3
			c0.4,0,0.7,0.1,0.9,0.4s0.4,0.6,0.4,0.9C60,36.4,59.9,36.9,59.7,37.5z"/>
	</g>
	<g id="XMLID_40_">
		<g id="XMLID_280_">
			<path id="XMLID_283_" class="st1" d="M67.8,40.3c-0.3,0-0.6-0.1-0.9-0.3c-0.2-0.2-0.4-0.5-0.4-0.9c0-0.3,0.1-0.6,0.4-0.9
				s0.5-0.3,0.9-0.3c0.3,0,0.6,0.1,0.8,0.3c0.2,0.2,0.4,0.5,0.4,0.9c0,0.4-0.1,0.7-0.4,0.9S68.1,40.3,67.8,40.3z M69,42.8V50
				c0,0.5-0.1,0.9-0.3,1.1c-0.2,0.3-0.5,0.4-0.9,0.4c-0.4,0-0.6-0.1-0.9-0.4c-0.2-0.3-0.3-0.6-0.3-1.1v-7.1c0-0.5,0.1-0.9,0.3-1.1
				c0.2-0.2,0.5-0.4,0.9-0.4c0.4,0,0.7,0.1,0.9,0.4C68.9,42.1,69,42.4,69,42.8z"/>
			<path id="XMLID_281_" class="st1" d="M71.6,41.7h0.3v-1.5c0-0.4,0-0.7,0-0.9c0-0.2,0.1-0.4,0.2-0.6c0.1-0.2,0.2-0.3,0.4-0.4
				c0.2-0.1,0.4-0.2,0.6-0.2c0.3,0,0.6,0.1,0.8,0.4c0.2,0.2,0.3,0.3,0.3,0.6s0.1,0.5,0.1,1v1.7h0.9c0.3,0,0.6,0.1,0.8,0.2
				c0.2,0.2,0.3,0.4,0.3,0.6c0,0.3-0.1,0.6-0.4,0.7c-0.3,0.1-0.6,0.2-1.1,0.2h-0.5V48c0,0.4,0,0.7,0,0.9c0,0.2,0.1,0.4,0.2,0.5
				c0.1,0.1,0.3,0.2,0.6,0.2c0.1,0,0.3,0,0.6-0.1c0.2-0.1,0.4-0.1,0.6-0.1c0.2,0,0.4,0.1,0.5,0.2c0.2,0.2,0.2,0.4,0.2,0.6
				c0,0.4-0.2,0.7-0.6,0.9c-0.4,0.2-1,0.3-1.9,0.3c-0.8,0-1.3-0.1-1.7-0.4c-0.4-0.3-0.7-0.6-0.8-1.1c-0.1-0.5-0.2-1.1-0.2-1.8v-4.7
				h-0.3c-0.4,0-0.6-0.1-0.8-0.3c-0.2-0.2-0.3-0.4-0.3-0.6c0-0.3,0.1-0.5,0.3-0.6C71,41.7,71.3,41.7,71.6,41.7z"/>
		</g>
	</g>
	<polygon id="XMLID_32_" class="st4" points="26.5,26 32,22.5 37.4,26 32,32.4 	"/>
	<path id="XMLID_30_" class="st5" d="M29.6,24.1c0,0,1.5,3.4,2.5,8.3L26.5,26C26.5,26,27.3,25.5,29.6,24.1z"/>
	<path id="XMLID_29_" class="st5" d="M34.5,24.1c0,0-1.5,3.4-2.4,8.3l5.4-6.4C37.4,26,36.3,25.3,34.5,24.1z"/>
	<path id="XMLID_27_" class="st0" d="M10.7,45.9L8,41.4L6.3,43v2.4c0,0.6-0.2,1-0.5,1.4c-0.3,0.3-0.7,0.5-1.1,0.5
		c-0.5,0-0.8-0.2-1.1-0.5c-0.3-0.3-0.4-0.8-0.4-1.4V32.3c0-0.7,0.1-1.2,0.4-1.6c0.3-0.4,0.6-0.5,1.1-0.5c0.5,0,0.8,0.2,1.1,0.5
		c0.3,0.3,0.4,0.8,0.4,1.4v7.4L9.7,36c0.4-0.4,0.7-0.8,1-0.9c0.2-0.2,0.5-0.2,0.8-0.2c0.4,0,0.7,0.1,0.9,0.4
		c0.3,0.2,0.4,0.5,0.4,0.9c0,0.4-0.4,1-1.2,1.8L10,39.4l3.1,4.9c0.2,0.4,0.4,0.6,0.5,0.8c0.1,0.2,0.1,0.4,0.1,0.5
		c0,0.5-0.1,0.9-0.4,1.1c-0.3,0.3-0.6,0.4-1,0.4c-0.4,0-0.7-0.1-0.9-0.3C11.3,46.8,11,46.4,10.7,45.9z"/>
</g>
</svg>
