<?xml version="1.0" encoding="utf-8"?>
<!-- Generator: Adobe Illustrator 19.0.0, SVG Export Plug-In . SVG Version: 6.00 Build 0)  -->
<svg version="1.1" id="Layer_1" xmlns="http://www.w3.org/2000/svg" xmlns:xlink="http://www.w3.org/1999/xlink" x="0px" y="0px"
	 viewBox="0 0 36.3 36.6" style="enable-background:new 0 0 36.3 36.6;" xml:space="preserve">
<g id="XMLID_166_">
	<g id="XMLID_209_">
		<g id="XMLID_243_">
			<path id="XMLID_244_" d="M2.4,32.9c0,0.1,0.1,0.2,0.1,0.4v2.2H2.1v-2.2c0-0.4-0.3-0.7-0.9-0.7c-0.3,0-0.5,0-0.9,0l-0.2,0v-0.3
				c0.4,0,0.7,0,1,0s0.6,0,0.8,0.1S2.4,32.6,2.4,32.9z M0.6,35.4H0.2v-2h0.4V35.4z"/>
		</g>
		<g id="XMLID_240_">
			<path id="XMLID_241_" d="M3.8,32.3c0.1,0,0.2,0,0.4,0c0.1,0,0.3,0,0.4,0c0.1,0,0.2,0.1,0.3,0.1c0.1,0.1,0.2,0.1,0.2,0.2
				c0.1,0.1,0.1,0.2,0.2,0.2c0,0.1,0.1,0.2,0.1,0.3c0,0.2,0.1,0.3,0.1,0.5v0.5c0,0.1,0,0.2,0,0.3c0,0.1,0,0.2-0.1,0.3
				c0,0.1-0.1,0.2-0.1,0.3c-0.1,0.1-0.1,0.2-0.2,0.2c-0.1,0.1-0.2,0.1-0.3,0.2c-0.1,0-0.3,0.1-0.4,0.1c-0.1,0-0.3,0-0.4,0
				c-0.1,0-0.2,0-0.2,0l-0.1,0V35c0.2,0.1,0.4,0.1,0.7,0.1c0.1,0,0.2,0,0.3,0c0.1,0,0.1-0.1,0.2-0.1c0.1,0,0.1-0.1,0.1-0.2
				c0-0.1,0.1-0.1,0.1-0.2c0-0.1,0-0.1,0.1-0.2c0-0.1,0-0.2,0-0.3v-0.5c0-0.2,0-0.4-0.1-0.5c0-0.1,0-0.1-0.1-0.2
				c0-0.1-0.1-0.1-0.1-0.2c-0.1,0-0.1-0.1-0.2-0.1c-0.1,0-0.2,0-0.3,0c-0.1,0-0.2,0-0.4,0c-0.1,0-0.2,0-0.2,0.1l-0.1,0v-0.4
				c0,0,0,0,0.1,0C3.6,32.3,3.7,32.3,3.8,32.3z"/>
		</g>
		<g id="XMLID_237_">
			<path id="XMLID_238_" d="M6.3,32.3c0.2,0,0.4,0,0.6,0s0.3,0,0.5,0c0.1,0,0.2,0.1,0.3,0.1c0.1,0,0.2,0.1,0.3,0.2
				c0.2,0.2,0.2,0.4,0.2,0.7v2.2H7.7v-2.2c0-0.4-0.3-0.7-0.9-0.7c-0.2,0-0.4,0-0.6,0V32.3z"/>
		</g>
		<g id="XMLID_234_">
			<path id="XMLID_235_" d="M11.4,32.3v0.3c-0.3,0.1-0.5,0.3-0.5,0.7v2.2h-0.4v-2.2c0-0.1,0-0.2,0-0.3c0-0.1,0.1-0.1,0.1-0.2
				c0.1-0.1,0.1-0.2,0.2-0.2l0,0v0H9.1v-0.3H11.4z"/>
		</g>
		<g id="XMLID_230_">
			<path id="XMLID_231_" d="M14.7,32.9c0,0.1,0.1,0.2,0.1,0.4v2.2h-0.4v-2.2c0-0.4-0.3-0.7-0.9-0.7c-0.3,0-0.5,0-0.9,0l-0.2,0v-0.3
				c0.4,0,0.7,0,1,0c0.3,0,0.6,0,0.8,0.1S14.6,32.6,14.7,32.9z M12.8,35.4h-0.4v-2h0.4V35.4z"/>
		</g>
		<g id="XMLID_226_">
			<path id="XMLID_227_" d="M18.2,32.9c0,0.1,0.1,0.2,0.1,0.4v2.2h-0.4v-2.2c0-0.4-0.3-0.7-0.9-0.7c-0.3,0-0.5,0-0.9,0l-0.2,0v-0.3
				c0.4,0,0.7,0,1,0c0.3,0,0.6,0,0.8,0.1C18,32.5,18.2,32.6,18.2,32.9z M16.4,35.4H16v-2h0.4V35.4z"/>
		</g>
		<g id="XMLID_223_">
			<path id="XMLID_224_" d="M22.8,35.5c-0.1,0-0.2,0-0.2,0v-0.3c0.1,0,0.2,0,0.2,0c0.2,0,0.3-0.1,0.3-0.4v-2.1l-0.3,0v-0.3
				c0.5-0.1,0.9-0.1,1.2-0.1c0.3,0,0.5,0,0.7,0.1c0.2,0.1,0.4,0.3,0.4,0.5c0,0.1,0.1,0.2,0.1,0.4v2.2h-0.4v-2.2
				c0-0.4-0.3-0.7-0.9-0.7c-0.1,0-0.2,0-0.4,0v2.1c0,0.3-0.1,0.5-0.2,0.6C23.2,35.4,23.1,35.5,22.8,35.5z"/>
		</g>
		<g id="XMLID_220_">
			<path id="XMLID_221_" d="M26.4,34.4v-2.1h0.4V34L26.4,34.4L26.4,34.4z"/>
		</g>
		<g id="XMLID_217_">
			<path id="XMLID_218_" d="M28,34.4v-2.1h0.4V34L28,34.4L28,34.4z"/>
		</g>
		<g id="XMLID_214_">
			<path id="XMLID_215_" d="M29.4,32.3c0.2,0,0.4,0,0.6,0c0.2,0,0.3,0,0.5,0s0.2,0.1,0.3,0.1c0.1,0,0.2,0.1,0.3,0.2
				c0.2,0.2,0.2,0.4,0.2,0.7v2.2h-0.4v-2.2c0-0.4-0.3-0.7-0.9-0.7c-0.2,0-0.4,0-0.6,0V32.3z"/>
		</g>
		<g id="XMLID_210_">
			<path id="XMLID_211_" d="M34.1,35.4L34.1,35.4l-0.4,0.1v-0.1c0-0.1,0-0.3,0.1-0.5c0.1-0.2,0.1-0.4,0.1-0.4c0-0.2,0.1-0.4,0.2-0.6
				l0.3-1.2h-1.9v-0.3h2.3v0.3l-0.4,1.2c0,0.1-0.1,0.3-0.1,0.4c0,0.1-0.1,0.2-0.1,0.3c0,0.1-0.1,0.2-0.1,0.3c0,0.1,0,0.1-0.1,0.2
				C34.2,35.2,34.1,35.3,34.1,35.4z M33,36.6h-0.4v-3.1H33V36.6z"/>
		</g>
	</g>
	<g id="XMLID_183_">
		<g id="XMLID_206_">
			<path id="XMLID_207_" d="M1.4,25.9h2.1v0.8L3,28.5l0,0L2.6,30H1.4l0.4-1.6l0.5-1.6h-2v-1.8h1.2V25.9z"/>
		</g>
		<g id="XMLID_202_">
			<path id="XMLID_203_" d="M5.8,25.3L5.8,25.3c-0.1,0.8-0.3,1.4-0.5,1.9H4.4c0.1-0.7,0.2-1.3,0.3-1.9H5.8z M7.4,25.3L7.4,25.3
				c-0.1,0.9-0.3,1.5-0.5,1.9H6c0.1-0.7,0.2-1.3,0.3-1.9H7.4z"/>
		</g>
		<g id="XMLID_199_">
			<path id="XMLID_200_" d="M8.6,28.7v-2.8h1.2v1.9l-0.7,0.9H8.6z"/>
		</g>
		<g id="XMLID_196_">
			<path id="XMLID_197_" d="M13,25.9c0.2,0,0.3,0,0.5,0c0.2,0,0.3,0,0.5,0.1c0.2,0,0.3,0.1,0.4,0.2c0.1,0.1,0.2,0.2,0.3,0.4
				c0.2,0.3,0.2,0.8,0.2,1.4c0,0.7-0.2,1.2-0.5,1.6c-0.3,0.4-0.8,0.6-1.4,0.6c-0.2,0-0.5,0-0.7-0.1c-0.2-0.1-0.4-0.2-0.6-0.4
				c-0.2-0.2-0.3-0.4-0.4-0.7c-0.1-0.3-0.1-0.6-0.1-0.9v-2h1.2v2c0,0.8,0.2,1.2,0.6,1.2c0.2,0,0.3-0.1,0.4-0.3
				c0.1-0.2,0.1-0.5,0.1-0.9c0-0.4,0-0.7-0.1-0.9c-0.1-0.2-0.2-0.2-0.4-0.2l-0.2,0V25.9z"/>
		</g>
		<g id="XMLID_193_">
			<path id="XMLID_194_" d="M19.6,25.9c0.4,0,0.8-0.1,1.1-0.1c0.3,0,0.6,0,0.8,0c0.2,0,0.3,0.1,0.5,0.1c0.1,0.1,0.2,0.1,0.3,0.2
				c0.1,0.1,0.1,0.2,0.2,0.3c0,0.1,0.1,0.3,0.1,0.4c0,0.1,0,0.3,0,0.4V30h-1.2v-2.6c0-0.4-0.2-0.6-0.6-0.6c-0.3,0-0.7,0-1.1,0.1
				V25.9z"/>
		</g>
		<g id="XMLID_190_">
			<path id="XMLID_191_" d="M25.4,30h-1.2v-4.1h1.2V30z"/>
		</g>
		<g id="XMLID_187_">
			<path id="XMLID_188_" d="M30,25.9v0.9c-0.2,0.1-0.4,0.2-0.4,0.3c-0.1,0.1-0.1,0.3-0.1,0.5V30h-1.2v-2.5c0-0.3,0.1-0.5,0.3-0.7h-2
				v-1H30z"/>
		</g>
		<g id="XMLID_184_">
			<path id="XMLID_185_" d="M32.1,25.9c0.1,0.1,0.1,0.3,0.1,0.4h0c0,0,0.1-0.1,0.2-0.2c0.1-0.1,0.2-0.1,0.3-0.2
				c0.1,0,0.2-0.1,0.3-0.1c0.1,0,0.3-0.1,0.5-0.1c0.2,0,0.3,0,0.5,0.1c0.2,0.1,0.3,0.1,0.4,0.3c0.1,0.1,0.2,0.2,0.2,0.4
				c0.1,0.3,0.2,0.7,0.2,1.1V30h-2v-1h0.7v-1.4c0-0.2,0-0.4,0-0.5S33.5,27,33.5,27c-0.1-0.1-0.2-0.2-0.4-0.2c-0.1,0-0.1,0-0.2,0
				c-0.1,0-0.1,0.1-0.2,0.1c-0.1,0.1-0.2,0.2-0.2,0.2l0,0L32.2,30H31l0.2-2.6c0-0.2,0-0.3,0-0.4c0-0.4-0.1-0.7-0.2-1.1H32.1z"/>
		</g>
	</g>
	<g id="XMLID_181_">
		<path id="XMLID_46_" d="M35.1,1.8l-1.2,0.4l0.6,0.2c-1.4,1.5-8.5,9-9.5,9.7c-2.3,1.7-4.9,2.6-7.7,2.6c-2.8,0-5.5-0.9-7.7-2.6
			c-1.4-1.1-4.1-4-4.1-4S5,8.2,4.4,8.4C4.2,8.5,4.1,8.5,4.1,8.5s3.4,3.6,4.6,4.5c2.5,1.9,5.4,3,8.5,3v0c0,0,0,0,0,0c0,0,0,0,0,0v0
			c3.1,0,6-1.1,8.5-3c2.8-2.2,8.4-8.3,9.7-9.8l0.2,0.6L36,2.6l0.3-1.2L35.1,1.8z"/>
	</g>
	<g id="XMLID_179_">
		<path id="XMLID_40_" d="M17.5,18.5L17.5,18.5C17.5,18.5,17.5,18.5,17.5,18.5C17.4,18.5,17.4,18.5,17.5,18.5L17.5,18.5
			c-0.6,0-1.4,0-2-0.1l1.9,3.3l2-3.4C18.7,18.5,18.2,18.5,17.5,18.5z"/>
	</g>
	<g id="XMLID_177_">
		<path id="XMLID_32_" d="M6.2,10.3c-2.2,0.4-3.8,2.3-3.8,4.5c0,2.5,2.1,4.6,4.7,4.6c2.6,0,4.7-2.1,4.7-4.6c0-0.1,0-0.2,0-0.3
			C9.5,13.6,7.7,12.1,6.2,10.3z"/>
	</g>
	<g id="XMLID_175_">
		<path id="XMLID_30_" d="M28.5,10.3c-1.6,1.9-3.5,3.5-5.5,4.4c0,0,0,0.1,0,0.1c0,2.5,2.1,4.6,4.7,4.6c2.6,0,4.7-2.1,4.7-4.6
			C32.4,12.6,30.7,10.7,28.5,10.3z"/>
	</g>
	<g id="XMLID_173_">
		<path id="XMLID_29_" d="M27.6,21.7c-1.6,0-3.2-0.6-4.5-1.6c-1.4-1.1-2.3-2.7-2.5-4.4c0,0,0-0.1,0-0.2c-0.1-0.6-0.2-1-0.2-1.1
			c0-0.7-0.5-1.5-0.9-1.9c-0.4-0.5-1.3-1-2.3-1c-0.9,0-1.7,0.5-2.1,0.9c-0.5,0.5-0.7,1.1-0.9,1.9c0,0.1-0.1,0.5-0.1,0.8
			c0,0.3-0.1,0.5-0.1,0.5c-0.4,3.5-3.5,6.1-7,6.1c-3.4,0-7.1-2.6-7.1-6.9c0-2.1,0.8-3.9,2.5-5.2c1.2-1,2.4-1.4,2.4-1.4
			c0.3-0.1,0.6,0.1,0.7,0.3c0.1,0.3-0.1,0.6-0.3,0.7C5,9.3,1.1,10.6,1.1,14.8c0,3.6,3.1,5.9,6,5.9c2.6,0,5.5-1.8,6-5.1
			c0,0,0-0.3,0.1-0.5c0-0.3,0.1-0.7,0.1-0.8c0.1-1.1,0.5-1.9,1.2-2.5c0.8-0.8,1.8-1.2,2.9-1.2c1.1,0,2.3,0.5,3,1.3
			c0.6,0.6,1.1,1.6,1.2,2.6c0,0.1,0.1,0.8,0.2,1c0,0.1,0,0.2,0,0.3c0.4,3.2,3.3,5.1,6,5.1c2.9,0,6-2.2,6-5.9c0-4.2-4.1-5.6-4.2-5.6
			c-0.3-0.1-0.4-0.4-0.3-0.7c0.1-0.3,0.4-0.4,0.7-0.3c0.1,0,1.2,0.4,2.4,1.4c1.6,1.3,2.5,3.1,2.5,5.2c0,1.9-0.8,3.7-2.2,5
			C31.2,21,29.4,21.7,27.6,21.7z"/>
	</g>
	<g id="XMLID_171_">
		<path id="XMLID_28_" d="M23.7,10.6c-3.5-3.5-9.1-3.5-12.6,0l-0.9-0.9c1.9-1.9,4.5-3,7.2-3c2.7,0,5.3,1.1,7.2,3L23.7,10.6z"/>
	</g>
	<g id="XMLID_169_">
		<path id="XMLID_27_" d="M26.1,8.1c-4.8-4.8-12.6-4.8-17.5,0L7.7,7.2c5.3-5.3,14-5.3,19.3,0L26.1,8.1z"/>
	</g>
	<g id="XMLID_167_">
		<path id="XMLID_23_" d="M28.3,5.8c-6-6-15.9-6-21.9,0L5.5,4.9c6.6-6.6,17.2-6.6,23.8,0L28.3,5.8z"/>
	</g>
</g>
</svg>
